<?xml version="1.0" encoding="UTF-8" standalone="no"?>
<svg
   xmlns:dc="http://purl.org/dc/elements/1.1/"
   xmlns:cc="http://creativecommons.org/ns#"
   xmlns:rdf="http://www.w3.org/1999/02/22-rdf-syntax-ns#"
   xmlns:svg="http://www.w3.org/2000/svg"
   xmlns="http://www.w3.org/2000/svg"
   version="1.1"
   id="svg4605"
   viewBox="0 0 640 355.44456"
   height="100.31435mm"
   width="180.62222mm">
  <defs
     id="defs4607" />
  <metadata
     id="metadata4610">
    <rdf:RDF>
      <cc:Work
         rdf:about="">
        <dc:format>image/svg+xml</dc:format>
        <dc:type
           rdf:resource="http://purl.org/dc/dcmitype/StillImage" />
        <dc:title></dc:title>
      </cc:Work>
    </rdf:RDF>
  </metadata>
  <g
     transform="translate(246.47637,190.06723)"
     id="layer1">
    <path
       style="fill:#0f0c0c;fill-opacity:1;fill-rule:nonzero;stroke:none"
       d="m 95.563149,-190.06723 -342.039519,0 0,134.024401 27.86151,0 c 2.68104,-66.473351 8.04304,-106.162881 86.87007,-106.162881 l 113.128289,0 0,128.68865 -44.499561,0 c -42.370568,0 -47.732568,-12.32741 -49.861618,-70.23207 l -27.88778,0 0,174.765288 27.88778,0 c 2.12905,-64.3180305 7.49105,-76.6717104 49.861618,-76.6717104 l 44.499561,0 0,143.1451124 -113.128289,0 c -78.82703,0 -84.18903,-39.66326 -86.87007,-116.33497 l -27.86151,0 0,144.22275 489.33755,0 0,-27.88778 -41.29287,0 c -16.61179,0 -24.12911,-10.17208 -24.12911,-27.33586 l 0,-115.8092524 35.37883,0 c 42.34425,0 48.81027,12.3536799 50.93926,76.1460554 l 27.88783,0 0,-173.713913 -27.88783,0 c -2.12899,57.37894 -8.59501,69.70635 -50.93926,69.70635 l -35.37883,0 0,-128.68865 99.19748,0 c 63.26667,0 88.99917,21.4744 88.99917,112.050597 l 27.88778,0 0,-139.912117 z M 125.44853,110.1537 c 0,17.16378 -7.51733,27.33586 -24.12912,27.33586 l -43.842449,0 c -16.585461,0 -24.102842,-10.17208 -24.102842,-27.33586 l 0,-244.47164 c 0,-17.68942 6.965403,-27.88777 24.654821,-27.88777 l 42.76481,0 c 17.68943,0 24.65478,10.19835 24.65478,27.88777 z m 0,0"
       id="path297" />
  </g>
</svg>
